<?xml version="1.0" encoding="UTF-8"?>
<svg version="1.1" viewBox="0 0 1972 1932" width="1280" height="1280" xmlns="http://www.w3.org/2000/svg">
<path transform="translate(800,537)" d="m0 0 8 1 28 4h35l-3 14v13l4 13 6 12 12 17 12 14 8 8 7 8 41 41 7 8 10 11 11 14 13 20 10 17 12 29 6 21 4 21 1 16v24l-4 25-6 20-8 19-8 14-7 10-3 3-11-1h-39l-23 1 2-11 3-17 1-9v-23l-2-15-5-19-9-21-11-19-9-13-13-17-9-10-9-11-11-12-11-14-10-12-9-13-12-19-10-19-9-23-6-22-3-21v-23l5-25 7-17 6-11z" fill="#DDBF8C"/>
<path transform="translate(1194,656)" d="m0 0 10 1 18 4 2 1v8l-4 18-6 16-8 16-9 15-13 20-9 15-8 18-3 13-1 14 3 12 6 10 4 4v2l4 2 9 6 6 2 499 1 2 1v46l-1 1-466 1-19 2-38 7-48 10-20 3h-10l-4-5-10-21-6-19-4-19-1-8v-23l3-20 6-20 11-23 7-10 9-12 16-17 10-9 17-13 16-13 12-11 8-9 7-10z" fill="#DDBF8C"/>
<path transform="translate(732,706)" d="m0 0 18 4 5 4 7 11 10 10 14 11 14 12 8 7 9 11 7 10 8 16 5 16 1 6v29l-4 17-6 15-5 9-3 3-14 3-21 2h-558v-47l1-1 524-1 10-8 7-8 4-8 2-8-1-13-4-12-8-15-15-23-8-15-5-14-2-9-1-13z" fill="#DDBF8C"/>
<path transform="translate(377,1040)" d="m0 0 4 3 5 9 11 16 13 20 8 16 4 14v11l-4 11-6 8-7 6-11 5-8 2h-8l-10-3-7-4 2 5 1 6v14l-4 10-6 8-8 7-10 5-8 2h-16l-10-3-11-7-7-6-7-8-11-15-12-19-10-15-4-7 78-52 44-29zm-2 33-16 10-16 11-8 5 1 4 11 16 8 10 7 6 6 3 8 1 10-3 10-9 2-5v-10l-4-11-11-18-7-10zm-58 38-11 7-30 20-4 3 1 4 16 24 13 13 8 4h15l8-4 7-6 3-5 1-4v-11l-5-14-13-21-7-10z" fill="#DDBF8C"/>
<path transform="translate(988,470)" d="m0 0h48l6 2 4 6 2 7v12l-4 9-6 9-13 13-19 14-16 12-8 8-6 10v13l4 9 9 14 3 4v2l-17-2-23-5-17-7-11-6-12-11-6-10-2-6v-15l5-12 7-9 11-11 18-12 25-15 14-10 4-5-1-7z" fill="#DDBF8C"/>
<path transform="translate(1113,569)" d="m0 0h7l6 7 4 8 1 8-2 10-6 11-9 10-11 10-13 9-16 12-8 7-7 11-1 3v11l4 10 12 17v2l-19-2-19-4-16-6-14-8-10-9-6-8-4-11v-11l3-10 6-10 9-10 14-11 25-15 17-11 9-7 3-8 28-3z" fill="#DDBF8C"/>
<path transform="translate(1226,1322)" d="m0 0h10l10 2 14 7 6 7 8 16 3 14v8l-3 12-6 10-8 9-4 3v2l8 7 9 9 8 7 11 11 8 7 7 7 6 5-1 2-22 7-5 1-15-15-8-7-20-20-8-7-4-3-10 2-13 4h-2l16 54 2 6-1 5-20 6-4-1-9-29-24-79-13-44-1-4 7-3 39-12 21-5zm-5 22-18 4-20 6-1 2 14 47 2 6 7-1 22-7 12-6 7-6 4-7 1-4v-10l-4-12-8-9-9-3z" fill="#DDBF8C"/>
<path transform="translate(580,1236)" d="m0 0 5 2 16 9 1 3-12 23-12 22-7 12 7-1h15l12 3 10 5 10 9 5 8 4 13v16l-4 15-7 16-9 13-9 10-13 9-14 5-4 1h-15l-13-4-11-8-8-11-5-10v-2h-3l-2 5-4 4-17-8-1-3 8-14 13-24 28-52 10-18 18-34 7-13zm-7 87-12 3-6 9-14 27-6 10-3 6 1 6 6 9 8 8 8 4h16l10-5 10-9 7-10 6-12 4-15v-10l-5-10-7-6-10-4-5-1z" fill="#DDBF8C"/>
<path transform="translate(799,1381)" d="m0 0 13 1 13 5 10 8 6 7 2 1 3-10 10 1 10 2-1 11-16 81-15 78-3 1-23-5 1-9 9-43 3-9-13 6-13 3h-9l-12-3-11-6-9-9-8-16-2-8v-25l4-18 8-17 8-10 9-8 14-7zm0 23-10 5-7 7-6 11-4 11-1 5v23l3 9 6 8 5 4 8 3h11l12-4 8-6 6-28 5-26v-7l-5-5-7-6-11-4z" fill="#DDBF8C"/>
<path transform="translate(1573,1143)" d="m0 0 13 1 12 3 15 8 13 11 9 11 8 16 2 8v18l-3 12-5 10-8 10-10 8-10 5-11 3h-20l-13-4-10-5-12-9-8-8-9-14-6-16v-22l5-14 7-11 9-9 10-6 11-4zm-8 24-10 4-7 7-4 7-1 4v13l4 10 8 11 9 9 11 7 14 5h10l10-4 8-7 5-10v-14l-4-11-8-11-9-8-11-7-10-4-4-1z" fill="#DDBF8C"/>
<path transform="translate(402,1172)" d="m0 0 9 2 16 6 15 9 11 10 6 9 4 11v16l-5 12-10 14-53 53-1 2-5-1-13-13 6-7 2-4-17-3-11-4-9-7-5-5-6-8-3-8v-14l4-10 6-8 7-6 9-4 5-1 14 1 14 5 16 9 17 12 4 2 6-8 3-7-1-9-3-6-5-6-14-8-10-4-8-3 2-9zm-30 62-8 4-5 6-2 8 3 9 5 6 7 5 13 4h11l8-7 7-8 5-5-2-4-17-11-11-5-8-2z" fill="#DDBF8C"/>
<path transform="translate(688,1351)" d="m0 0h8l16 4 11 6 8 7 7 11 3 10v22l-4 15-5 11-3 1-60-21-14-6v21l3 10 5 7v2l4 2 9 5 8 3h25l2 6 1 5v7l-12 3h-16l-16-4-14-7-10-9-5-6-8-16-2-8v-18l4-17 8-16 7-10 7-7 13-8 13-4zm-3 21-10 5-8 7-6 9 3 3 45 16 5 2h4l2-11v-12l-5-10-8-6-9-3z" fill="#DDBF8C"/>
<path transform="translate(885,1399)" d="m0 0h19l7 1v15l-2 43v31l4 9 4 4 7 2h10l10-4 10-9 3-4 2-37 2-47 1-1 24 1 1 1v16l-4 92-1 13-1 1h-20l-1-1-1-17-11 9-10 6-9 3h-21l-10-4-9-9-5-10-2-9v-31z" fill="#DDBF8C"/>
<path transform="translate(1052,1395)" d="m0 0h20l14 5 10 8 7 9 5 12 3 12 1 8v12l-2 1-74 7h-4l6 16 6 8 8 6 8 3h18l15-5 7-5 4 1 5 8 2 2-1 6-13 8-18 6-8 1h-12l-12-2-14-7-10-8-9-13-6-15-2-9v-25l5-16 7-13 12-12 14-7zm2 20-9 4-8 8-5 10-2 8v6h11l43-4 5-1-1-9-4-10-7-8-9-4z" fill="#DDBF8C"/>
<path transform="translate(1342,1315)" d="m0 0 13 1 13 5 10 8 7 8 8 13 5 11v4l-34 16-33 16-5 1 4 7 7 7 11 6 3 1h17l10-4 8-5 6-5 6-9 5 2 5 4 5 3 1 2-9 13-10 9-16 9-14 4h-21l-12-4-10-6-10-9-8-11-8-17-3-11-1-8 1-16 5-15 7-11 7-7 10-6 10-4zm-4 21-12 6-7 8-4 11v12l2 9h5l16-8 29-14 4-2-1-5-8-10-9-6-3-1z" fill="#DDBF8C"/>
<path transform="translate(1434,1262)" d="m0 0h10l4 4 1 2v13l-2 1-17 2-14 7-5 6-1 3v8l3 5v2l8 2 12-1 24-5 14-1 11 3 9 6 7 10 3 10v12l-5 12-6 8-8 8-13 8-15 5-9 2h-16l-1-19 1-2 21-1 11-4 9-6 6-7 1-2v-9l-4-7-4-2h-14l-29 5h-15l-9-3-10-9-6-12v-16l4-10 7-9 10-9 12-6z" fill="#DDBF8C"/>
<path transform="translate(1452,1200)" d="m0 0 5 4 7 9 9 11 4-1 11-9 9-8 4 1 10 11-1 5-10 9-10 8h-2l3 5 9 10 9 11 13 15 7 8 8 8 5 2h7l8-5 5-6 2-3 5 2 11 7-1 5-8 11-9 8-12 6-4 1h-12l-9-4-8-6-13-13-9-11-22-26-4-5-5 2-8 7-5-1-9-11 2-5 10-8-1-5-10-14-7-10 2-4 10-8z" fill="#DDBF8C"/>
<path transform="translate(493,1241)" d="m0 0 5 2 12 9v4l-10 16 13-4 5-1h11l12 4 10 8 1 6-12 11-1 2-5-1-7-7-11-4h-8l-12 3-7 4h-2l-2 4-7 9-28 38-8 11-7-4-14-10 2-5 16-21 42-57z" fill="#DDBF8C"/>
<path transform="translate(935,1077)" d="m0 0h11l4 5 10 18 13 23 4 7-1-52 2-1h9l1 1v69l-1 1h-9l-5-5-13-23-9-16-5-9v53h-11z" fill="#DDBF8D"/>
<path transform="translate(806,1077)" d="m0 0h11v29h30v-26l1-3h10l1 1v69l-1 1h-10v-33h-31v33h-11z" fill="#DEC190"/>
<path transform="translate(677,1077)" d="m0 0h9l2 1v40l2 14 5 6 3 1h10l5-3 3-4 2-11 1-43h11l1 2-1 43-2 11-6 9-9 5-6 1h-8l-9-2-8-7-4-9-1-4-1-15v-34z" fill="#DEC190"/>
<path transform="translate(1248,1077)" d="m0 0h12l2 2 11 36 10 29v4h-11l-6-19-1-1h-24l-5 19-1 1h-9l-2-2 5-15 11-35 6-17zm5 9-8 27-1 6 19 1-2-11-6-21z" fill="#DDBF8C"/>
<path transform="translate(633,1077)" d="m0 0h12l3 6 15 47 5 14v4h-11l-3-9-3-12-25 1-5 19-1 1h-10l1-7 7-23 12-36zm5 10-9 29v3l18 1 1-4-7-25-2-4z" fill="#DDBF8D"/>
<path transform="translate(877,1077)" d="m0 0h42v8l-1 1h-30v20h26l1 3-1 6-26 1v23h31l1 1v7l-1 1h-42l-1-8v-61z" fill="#DDC08E"/>
<path transform="translate(1408,1077)" d="m0 0h42v9h-31v20h26v9h-27l1 2-1 22h32l1 1v7l-1 1h-42z" fill="#DDBF8D"/>
<path transform="translate(1310,1076)" d="m0 0h8l13 4 4 4-1 5-5 2-7-4-4-1h-7l-6 3-2 6 3 5 6 4 16 7 6 5 4 8v9l-3 6-7 7-10 3h-9l-11-3-7-4-1-6 3-3 5 1 7 4 4 1h10l6-4 1-2v-7l-6-5-16-7-8-6-4-8v-10l4-7 5-4z" fill="#DDC08E"/>
<path transform="translate(1117,1076)" d="m0 0h9l10 3 5 4-1 7-4 1-8-4-9-1-8 4-6 8-2 6v17l3 9 6 7 5 2h10l12-6 4 3-1 5-8 6-9 2-13-1-8-4-7-7-5-11-1-4v-17l4-13 7-9 8-5z" fill="#DEC190"/>
<path transform="translate(1e3 1077)" d="m0 0h53l1 2v6l-3 1h-19v61l-1 1h-10l-1-5v-56l-20-1-1-6z" fill="#DEC08F"/>
<path transform="translate(1172,1077)" d="m0 0h53v8l-1 1-19 1-1 60-1 1h-10l-1-7v-54l-20-1-1-7z" fill="#DDBF8C"/>
<path transform="translate(1343,1077)" d="m0 0h53v8l-1 1-20 1v60l-1 1h-10l-1-13 1-49h-21z" fill="#DDBF8C"/>
<path transform="translate(741,1077)" d="m0 0h52l1 1v7l-7 1h-14v62h-11v-62h-21z" fill="#DDBF8D"/>
<path transform="translate(1064,1077)" d="m0 0h10l1 1v69l-1 1h-10z" fill="#DDBF8C"/>
</svg>
